<?xml version="1.0" encoding="utf-8"?>
<!-- Generator: Adobe Illustrator 16.0.0, SVG Export Plug-In . SVG Version: 6.00 Build 0)  -->
<!DOCTYPE svg PUBLIC "-//W3C//DTD SVG 1.1//EN" "http://www.w3.org/Graphics/SVG/1.1/DTD/svg11.dtd">
<svg version="1.1" id="Layer_1" xmlns="http://www.w3.org/2000/svg" xmlns:xlink="http://www.w3.org/1999/xlink" x="0px" y="0px"
	 width="400px" height="400px" viewBox="0 0 400 400" enable-background="new 0 0 400 400" xml:space="preserve">
<g>
	<g>
		<g>
			<g>
				<g>
					<g>
						<path fill="#FFFFFF" d="M80.307,215c0,5.522-4.477,10-10,10h-20c-5.523,0-10-4.478-10-10v-30c0-5.522,4.477-10,10-10h20
							c5.523,0,10,4.478,10,10V215z"/>
					</g>
					<g>
						<path fill="#FFFFFF" d="M360.307,215c0,5.522-4.477,10-10,10h-20c-5.523,0-10-4.478-10-10v-30c0-5.522,4.477-10,10-10h20
							c5.523,0,10,4.478,10,10V215z"/>
					</g>
				</g>
				<g>
					<g>
						<path fill="#FFFFFF" d="M225.307,350c0,5.522-4.477,10-10,10h-30c-5.523,0-10-4.478-10-10v-20c0-5.522,4.477-10,10-10h30
							c5.523,0,10,4.478,10,10V350z"/>
					</g>
					<g>
						<path fill="#FFFFFF" d="M225.307,70c0,5.523-4.477,10-10,10h-30c-5.523,0-10-4.477-10-10V50c0-5.523,4.477-10,10-10h30
							c5.523,0,10,4.477,10,10V70z"/>
					</g>
				</g>
			</g>
			<g>
				<g>
					<g>
						<path fill="#FFFFFF" d="M104.54,125.754c-3.89,3.89-10.253,3.89-14.142,0l-14.143-14.143
							c-3.889-3.89-3.889-10.253,0.001-14.143L97.47,76.256c3.89-3.889,10.253-3.889,14.142,0l14.143,14.143
							c3.889,3.889,3.889,10.253-0.001,14.143L104.54,125.754z"/>
					</g>
					<g>
						<path fill="#FFFFFF" d="M302.53,323.744c-3.89,3.89-10.253,3.89-14.143,0l-14.142-14.143c-3.889-3.89-3.89-10.253,0-14.143
							l21.213-21.213c3.89-3.89,10.254-3.89,14.143,0l14.142,14.143c3.89,3.89,3.89,10.253,0,14.143L302.53,323.744z"/>
					</g>
				</g>
				<g>
					<g>
						<path fill="#FFFFFF" d="M125.753,295.459c3.89,3.89,3.89,10.253,0.001,14.143l-14.143,14.143
							c-3.889,3.89-10.252,3.89-14.142,0l-21.213-21.213c-3.89-3.89-3.89-10.253-0.001-14.143l14.143-14.143
							c3.889-3.89,10.252-3.89,14.142,0L125.753,295.459z"/>
					</g>
					<g>
						<path fill="#FFFFFF" d="M323.743,97.47c3.89,3.89,3.89,10.253,0,14.143l-14.142,14.142c-3.89,3.89-10.253,3.89-14.143,0
							l-21.213-21.213c-3.89-3.889-3.89-10.253,0-14.143l14.142-14.142c3.89-3.889,10.253-3.889,14.143,0L323.743,97.47z"/>
					</g>
				</g>
			</g>
		</g>
		<path fill="#FFFFFF" d="M330,200c0,71.798-58.202,130-130,130c-71.799,0-130-58.202-130-130c0-71.797,58.201-130,130-130
			C271.798,70,330,128.203,330,200z M200,97.857c-56.413,0-102.143,45.731-102.143,102.143c0,56.412,45.729,102.143,102.143,102.143
			c56.412,0,102.143-45.73,102.143-102.143C302.143,143.589,256.412,97.857,200,97.857z"/>
	</g>
	<circle fill="none" stroke="#FFFFFF" stroke-width="9" stroke-miterlimit="10" cx="200" cy="200" r="50"/>
</g>
</svg>
