<?xml version="1.0" encoding="utf-8"?>
<!-- Generator: Adobe Illustrator 16.0.0, SVG Export Plug-In . SVG Version: 6.00 Build 0)  -->
<!DOCTYPE svg PUBLIC "-//W3C//DTD SVG 1.1//EN" "http://www.w3.org/Graphics/SVG/1.1/DTD/svg11.dtd">
<svg version="1.1" id="radio" xmlns="http://www.w3.org/2000/svg" xmlns:xlink="http://www.w3.org/1999/xlink" x="0px" y="0px"
	 width="256px" height="256px" viewBox="0 0 256 256" enable-background="new 0 0 256 256" xml:space="preserve">
<g>
	<path fill="none" stroke="#000000" stroke-width="20" stroke-linejoin="round" stroke-miterlimit="10" d="M240.653,229
		c0,6.627-5.373,12-12,12h-201c-6.627,0-12-5.373-12-12V28c0-6.627,5.373-12,12-12h201c6.627,0,12,5.373,12,12V229z"/>
</g>
<g>
	<path fill="#006888" d="M47.866,67.243c-8.278-10.282-12.473-21.313-9.321-24.514c3.151-3.201,13.685,1.486,23.406,10.414
		l82.682,75.932c9.722,8.929,23.188,6.945,29.923-4.407l24.39-41.108c6.735-11.353,14.847-19.662,18.024-18.466
		c3.178,1.196,3.011,12.615-0.372,25.374L185.581,207.46c-3.383,12.759-12.923,14.786-21.201,4.504L47.866,67.243z"/>
</g>
</svg>
