<?xml version="1.0" encoding="utf-8"?>
<!-- Generator: Adobe Illustrator 16.0.0, SVG Export Plug-In . SVG Version: 6.00 Build 0)  -->
<!DOCTYPE svg PUBLIC "-//W3C//DTD SVG 1.1//EN" "http://www.w3.org/Graphics/SVG/1.1/DTD/svg11.dtd">
<svg version="1.1" id="radio" xmlns="http://www.w3.org/2000/svg" xmlns:xlink="http://www.w3.org/1999/xlink" x="0px" y="0px"
	 width="256px" height="256px" viewBox="0 0 256 256" enable-background="new 0 0 256 256" xml:space="preserve">
<g id="checked_x5F_hover">
	<path id="border_1_" d="M128,251.5C59.896,251.5,4.5,196.09,4.5,128C4.5,59.897,59.896,4.5,128,4.5
		c68.09,0,123.5,55.397,123.5,123.5C251.5,196.09,196.09,251.5,128,251.5z M128,26.796C72.19,26.796,26.796,72.191,26.796,128
		c0,55.796,45.395,101.218,101.204,101.218c55.796,0,101.218-45.422,101.218-101.218C229.218,72.191,183.796,26.796,128,26.796z"/>
	<path id="fill_1_" fill="#006888" d="M197.993,128c0,38.669-31.324,69.993-69.993,69.993c-38.656,0-70.007-31.324-70.007-69.993
		c0-38.663,31.351-70.007,70.007-70.007C166.669,57.993,197.993,89.337,197.993,128z"/>
</g>
</svg>
