<?xml version="1.0" encoding="utf-8"?>
<!-- Generator: Adobe Illustrator 16.0.0, SVG Export Plug-In . SVG Version: 6.00 Build 0)  -->
<!DOCTYPE svg PUBLIC "-//W3C//DTD SVG 1.1//EN" "http://www.w3.org/Graphics/SVG/1.1/DTD/svg11.dtd">
<svg version="1.1" id="Layer_1" xmlns="http://www.w3.org/2000/svg" xmlns:xlink="http://www.w3.org/1999/xlink" x="0px" y="0px"
	 width="400px" height="400px" viewBox="0 0 400 400" enable-background="new 0 0 400 400" xml:space="preserve">
<g>
	<path fill="#FFFFFF" d="M390.146,380c0,5.5-4.5,10-10,10h-360c-5.5,0-10-4.5-10-10V20c0-5.5,4.5-10,10-10h360c5.5,0,10,4.5,10,10
		V380z M370.146,40c0-5.5-4.5-10-10-10h-320c-5.5,0-10,4.5-10,10v280c0,5.5,4.5,10,10,10h320c5.5,0,10-4.5,10-10V40z"/>
</g>
<polygon opacity="0.7" fill="#FFFFFF" points="370.146,330 30.146,330 43.631,330 141.426,111.94 238.035,293.898 370.146,277.896 
	"/>
<circle opacity="0.7" fill="#FFFFFF" cx="286.926" cy="118.749" r="40"/>
</svg>
