<?xml version="1.0" encoding="utf-8"?>
<!-- Generator: Adobe Illustrator 16.0.0, SVG Export Plug-In . SVG Version: 6.00 Build 0)  -->
<!DOCTYPE svg PUBLIC "-//W3C//DTD SVG 1.1//EN" "http://www.w3.org/Graphics/SVG/1.1/DTD/svg11.dtd">
<svg version="1.1" id="Layer_1" xmlns="http://www.w3.org/2000/svg" xmlns:xlink="http://www.w3.org/1999/xlink" x="0px" y="0px"
	 width="400px" height="400px" viewBox="0 0 400 400" enable-background="new 0 0 400 400" xml:space="preserve">
<g>
	<g>
		<path fill="#FFFFFF" d="M359.223,296.189c-10.125-11.969-68.059-13.589-94.828-20.901c-15.192-4.147-25.257-16.822-25.69-26.571
			c-0.672-14.976,0.601-28.706,21.408-53.146c14.711-17.278,21.033-48.273,21.033-74.182c0-49.529-36.33-89.681-81.146-89.681
			v336.582h180C380,368.291,371.993,311.285,359.223,296.189z"/>
	</g>
	<g>
		<path fill="#FFFFFF" d="M40.777,296.189c10.126-11.969,68.059-13.589,94.829-20.901c15.192-4.147,25.257-16.822,25.69-26.571
			c0.671-14.976-0.601-28.706-21.408-53.146c-14.711-17.278-21.033-48.273-21.033-74.182c0-49.529,36.33-89.681,81.146-89.681
			v336.582H20C20,368.291,28.007,311.285,40.777,296.189z"/>
	</g>
</g>
</svg>
