<?xml version="1.0" encoding="utf-8"?>
<!-- Generator: Adobe Illustrator 16.0.0, SVG Export Plug-In . SVG Version: 6.00 Build 0)  -->
<!DOCTYPE svg PUBLIC "-//W3C//DTD SVG 1.1//EN" "http://www.w3.org/Graphics/SVG/1.1/DTD/svg11.dtd">
<svg version="1.1" id="Layer_1" xmlns="http://www.w3.org/2000/svg" xmlns:xlink="http://www.w3.org/1999/xlink" x="0px" y="0px"
	 width="400px" height="400px" viewBox="0 0 400 400" enable-background="new 0 0 400 400" xml:space="preserve">
<g>
	<path fill="#FFFFFF" d="M370.267,350c0,11.046-8.954,20-20,20h-50c-11.046,0-20-8.954-20-20v-54c0-11.046,8.954-20,20-20h50
		c11.046,0,20,8.954,20,20V350z"/>
	<path fill="none" stroke="#FFFFFF" stroke-width="33" stroke-linecap="round" stroke-miterlimit="10" d="M369.767,349.5
		c0,11.046-8.954,20-20,20h-50c-11.046,0-20-8.954-20-20v-54c0-11.046,8.954-20,20-20h50c11.046,0,20,8.954,20,20V349.5z"/>
</g>
</svg>
