<?xml version="1.0" encoding="utf-8"?>
<!-- Generator: Adobe Illustrator 16.0.0, SVG Export Plug-In . SVG Version: 6.00 Build 0)  -->
<!DOCTYPE svg PUBLIC "-//W3C//DTD SVG 1.1//EN" "http://www.w3.org/Graphics/SVG/1.1/DTD/svg11.dtd">
<svg version="1.1" id="Layer_1" xmlns="http://www.w3.org/2000/svg" xmlns:xlink="http://www.w3.org/1999/xlink" x="0px" y="0px"
	 width="400px" height="400px" viewBox="0 0 400 400" enable-background="new 0 0 400 400" xml:space="preserve">
<g>
	<path fill="#FFFFFF" d="M390.307,379.96c0,5.522-4.478,10-10,10h-360c-5.523,0-10-4.478-10-10v-360c0-5.522,4.477-10,10-10h360
		c5.522,0,10,4.478,10,10V379.96z M370.307,39.96c0-5.522-4.478-10-10-10h-320c-5.523,0-10,4.478-10,10v280c0,5.522,4.477,10,10,10
		h320c5.522,0,10-4.478,10-10V39.96z"/>
</g>
<polygon opacity="0.7" fill="#FFFFFF" points="370.307,329.96 30.146,329.96 43.631,329.96 141.426,111.921 238.115,293.889 
	370.307,277.896 "/>
<circle opacity="0.7" fill="#FFFFFF" cx="286.926" cy="118.749" r="40"/>
</svg>
