<?xml version="1.0" encoding="utf-8"?>
<!-- Generator: Adobe Illustrator 16.0.0, SVG Export Plug-In . SVG Version: 6.00 Build 0)  -->
<!DOCTYPE svg PUBLIC "-//W3C//DTD SVG 1.1//EN" "http://www.w3.org/Graphics/SVG/1.1/DTD/svg11.dtd">
<svg version="1.1" id="Layer_1" xmlns="http://www.w3.org/2000/svg" xmlns:xlink="http://www.w3.org/1999/xlink" x="0px" y="0px"
	 width="400px" height="400px" viewBox="0 0 400 400" enable-background="new 0 0 400 400" xml:space="preserve">
<g>
	<path fill="#FFFFFF" d="M245.772,135.374c6.05,0,11,4.95,11,11v198.042c0,6.05,4.95,11,11,11h37.573c6.05,0,11,3.591,11,7.98
		s-4.95,7.98-11,7.98H99.747c-6.05,0-11-3.591-11-7.98s4.95-7.98,11-7.98h37.572c6.05,0,11-4.95,11-11V176.763c0-6.05-4.95-11-11-11
		H99.747c-6.05,0-11-4.95-11-11v-8.389c0-6.05,4.95-11,11-11H245.772z M163.268,27.015c11.011-11.007,24.082-16.51,39.279-16.51
		s28.268,5.503,39.279,16.51c10.98,10.993,16.483,24.077,16.483,39.259c0,15.195-5.503,28.269-16.483,39.274
		c-11.012,10.994-24.082,16.497-39.279,16.497s-28.269-5.503-39.279-16.497c-10.978-11.006-16.484-24.079-16.484-39.274
		C146.783,51.092,152.29,38.008,163.268,27.015z"/>
</g>
</svg>
