<?xml version="1.0" encoding="utf-8"?>
<!-- Generator: Adobe Illustrator 16.0.0, SVG Export Plug-In . SVG Version: 6.00 Build 0)  -->
<!DOCTYPE svg PUBLIC "-//W3C//DTD SVG 1.1//EN" "http://www.w3.org/Graphics/SVG/1.1/DTD/svg11.dtd">
<svg version="1.1" id="Layer_1" xmlns="http://www.w3.org/2000/svg" xmlns:xlink="http://www.w3.org/1999/xlink" x="0px" y="0px"
	 width="400px" height="400px" viewBox="0 0 400 400" enable-background="new 0 0 400 400" xml:space="preserve">
<path fill="#FFFFFF" d="M411.573,410h-419V-5h419V410z M200,30.5c-93.644,0-169.5,75.856-169.5,169.5S106.356,369.5,200,369.5
	c93.645,0,169.5-75.856,169.5-169.5S293.645,30.5,200,30.5z"/>
<g>
	<path fill="#A3AF26" d="M200,42.677c42.04,0,81.552,16.359,111.258,46.065c29.706,29.706,46.065,69.218,46.065,111.258
		s-16.359,81.552-46.065,111.258C281.552,340.963,242.04,357.323,200,357.323s-81.552-16.359-111.258-46.065
		C59.037,281.552,42.677,242.04,42.677,200s16.36-81.552,46.065-111.258C118.448,59.037,157.96,42.677,200,42.677 M200,20
		c-99.447,0-180,80.553-180,180s80.553,180,180,180c99.448,0,180-80.553,180-180S299.448,20,200,20L200,20z"/>
</g>
</svg>
