<?xml version="1.0" encoding="utf-8"?>
<!-- Generator: Adobe Illustrator 16.0.0, SVG Export Plug-In . SVG Version: 6.00 Build 0)  -->
<!DOCTYPE svg PUBLIC "-//W3C//DTD SVG 1.1//EN" "http://www.w3.org/Graphics/SVG/1.1/DTD/svg11.dtd">
<svg version="1.1" id="Layer_1" xmlns="http://www.w3.org/2000/svg" xmlns:xlink="http://www.w3.org/1999/xlink" x="0px" y="0px"
	 width="400px" height="400px" viewBox="0 0 400 400" enable-background="new 0 0 400 400" xml:space="preserve">
<g>
	<path fill="#FFFFFF" d="M200.166,302.012c-52.531,0-90.551-50.543-90.333-107.437l47.555,4.748L76.57,113.729L10,223.098
		l47.547-15.698c0,78.782,63.864,142.646,142.642,142.646c43.94,0,83.225-19.904,109.39-51.144l-35.91-31.684
		C256.227,288.472,229.792,302.012,200.166,302.012z"/>
	<path fill="#FFFFFF" d="M199.834,97.973c52.53,0,90.551,50.543,90.332,107.437l-47.554-4.748l80.817,85.599L390,176.887
		l-47.549,15.698c0-78.782-63.862-142.63-142.639-142.63c-43.941,0-83.227,19.88-109.391,51.142l35.916,31.67
		C143.773,111.521,170.208,97.973,199.834,97.973z"/>
</g>
</svg>
