<?xml version="1.0" encoding="utf-8"?>
<!-- Generator: Adobe Illustrator 16.0.0, SVG Export Plug-In . SVG Version: 6.00 Build 0)  -->
<!DOCTYPE svg PUBLIC "-//W3C//DTD SVG 1.1//EN" "http://www.w3.org/Graphics/SVG/1.1/DTD/svg11.dtd">
<svg version="1.1" id="Layer_1" xmlns="http://www.w3.org/2000/svg" xmlns:xlink="http://www.w3.org/1999/xlink" x="0px" y="0px"
	 width="400px" height="400px" viewBox="0 0 400 400" enable-background="new 0 0 400 400" xml:space="preserve">
<g>
	<g>
		<path fill="#FFFFFF" d="M360.307,78c0,4.418-3.582,8-8,8h-304c-4.418,0-8-3.582-8-8V54c0-4.418,3.582-8,8-8h304
			c4.418,0,8,3.582,8,8V78z"/>
	</g>
	<g>
		<path fill="#FFFFFF" d="M360.307,131c0,4.418-3.582,8-8,8h-304c-4.418,0-8-3.582-8-8v-24c0-4.418,3.582-8,8-8h304
			c4.418,0,8,3.582,8,8V131z"/>
	</g>
	<g>
		<path fill="#FFFFFF" d="M360.307,185c0,4.418-3.582,8-8,8h-304c-4.418,0-8-3.582-8-8v-24c0-4.418,3.582-8,8-8h304
			c4.418,0,8,3.582,8,8V185z"/>
	</g>
	<g>
		<path fill="#FFFFFF" d="M360.307,239c0,4.418-3.582,8-8,8h-304c-4.418,0-8-3.582-8-8v-24c0-4.418,3.582-8,8-8h304
			c4.418,0,8,3.582,8,8V239z"/>
	</g>
	<g>
		<path fill="#FFFFFF" d="M360.307,293c0,4.418-3.582,8-8,8h-304c-4.418,0-8-3.582-8-8v-24c0-4.418,3.582-8,8-8h304
			c4.418,0,8,3.582,8,8V293z"/>
	</g>
	<g>
		<path fill="#FFFFFF" d="M360.307,347c0,4.418-3.582,8-8,8h-304c-4.418,0-8-3.582-8-8v-24c0-4.418,3.582-8,8-8h304
			c4.418,0,8,3.582,8,8V347z"/>
	</g>
</g>
</svg>
