<?xml version="1.0" encoding="utf-8"?>
<!-- Generator: Adobe Illustrator 16.0.0, SVG Export Plug-In . SVG Version: 6.00 Build 0)  -->
<!DOCTYPE svg PUBLIC "-//W3C//DTD SVG 1.1//EN" "http://www.w3.org/Graphics/SVG/1.1/DTD/svg11.dtd">
<svg version="1.1" id="Layer_1" xmlns="http://www.w3.org/2000/svg" xmlns:xlink="http://www.w3.org/1999/xlink" x="0px" y="0px"
	 width="400px" height="400px" viewBox="0 0 400 400" enable-background="new 0 0 400 400" xml:space="preserve">
<g>
	<g>
		<g>
			<path fill="#FFFFFF" d="M339.083,19.038c3.3,0,6.09,2.699,6.199,5.996l4.518,135.828c0.111,3.299-1.901,5.997-4.471,5.997
				c-2.567,0-5.693-2.498-6.945-5.552c0,0-24.941-60.833-36.09-75.236c-11.135-14.379-27.217-21.589-48.188-21.589l0,0
				c-3.25,0-5.907,2.7-5.907,6v262.056c0,3.3,2.462,7.108,5.472,8.463l30.865,13.891c3.009,1.354,5.471,5.163,5.471,8.463v11.607
				c0,3.3-2.7,6-6,6h-167.52c-3.301,0-6-2.7-6-6v-11.607c0-3.3,2.461-7.108,5.471-8.462L146.829,341
				c3.01-1.354,5.472-5.162,5.472-8.462V70.482c0-3.3-1.438-6-3.194-6c-1.758,0-5.842,0.533-9.078,1.185
				c0,0-31.34,6.314-42.812,21.298c-11.475,14.983-24.096,41.617-37.867,79.895H56c-3.3,0-5.91-2.698-5.8-5.997l4.518-135.828
				c0.109-3.297,2.9-5.996,6.199-5.996H339.083z"/>
		</g>
	</g>
</g>
</svg>
