<?xml version="1.0" encoding="utf-8"?>
<!-- Generator: Adobe Illustrator 16.0.0, SVG Export Plug-In . SVG Version: 6.00 Build 0)  -->
<!DOCTYPE svg PUBLIC "-//W3C//DTD SVG 1.1//EN" "http://www.w3.org/Graphics/SVG/1.1/DTD/svg11.dtd">
<svg version="1.1" id="Layer_1" xmlns="http://www.w3.org/2000/svg" xmlns:xlink="http://www.w3.org/1999/xlink" x="0px" y="0px"
	 width="400px" height="400px" viewBox="0 0 400 400" enable-background="new 0 0 400 400" xml:space="preserve">
<g>
	<path fill="#FFFFFF" d="M305.92,339c0,5.523-4.478,10-10,10h-191c-5.522,0-10-4.477-10-10V67c0-5.523,4.478-10,10-10h191
		c5.522,0,10,4.477,10,10V339z M296.92,82c0-5.5-4.5-10-10-10h-173c-5.5,0-10,4.5-10,10v222c0,5.5,4.5,10,10,10h173
		c5.5,0,10-4.5,10-10V82z"/>
</g>
</svg>
