<?xml version="1.0" encoding="utf-8"?>
<!-- Generator: Adobe Illustrator 16.0.0, SVG Export Plug-In . SVG Version: 6.00 Build 0)  -->
<!DOCTYPE svg PUBLIC "-//W3C//DTD SVG 1.1//EN" "http://www.w3.org/Graphics/SVG/1.1/DTD/svg11.dtd">
<svg version="1.1" id="Layer_1" xmlns="http://www.w3.org/2000/svg" xmlns:xlink="http://www.w3.org/1999/xlink" x="0px" y="0px"
	 width="400px" height="400px" viewBox="0 0 400 400" enable-background="new 0 0 400 400" xml:space="preserve">
<g>
	<path fill="#FFFFFF" d="M363.267,261c0,1.104-0.896,2-2,2h-322c-1.104,0-2-0.896-2-2V80c0-1.104,0.896-2,2-2h322
		c1.104,0,2,0.896,2,2V261z M216.267,277c0-1.1-0.9-2-2-2h-30.371c-1.1,0-2.272,0.858-2.604,1.906c0,0-8.872,27.974-46.725,43.623
		c-26.062,10.778-78.3,10.848-78.3,10.848c-1.1,0.002-2,0.903-2,2.003V358c0,1.1,0.9,2,2,2h158c1.1,0,2-0.9,2-2V277z M184.267,358
		c0,1.1,0.9,2,2,2h158c1.1,0,2-0.9,2-2v-24.62c0-1.1-0.9-2.001-2-2.003c0,0-52.337-0.07-78.401-10.848
		c-37.847-15.649-46.824-43.625-46.824-43.625c-0.337-1.047-1.512-1.904-2.611-1.904h-30.163c-1.1,0-2,0.9-2,2V358z M365.267,81
		c0-1.1-0.9-2-2-2h-326c-1.1,0-2,0.9-2,2v181c0,1.1,0.9,2,2,2h326c1.1,0,2-0.9,2-2V81z"/>
	<path fill="none" stroke="#FFFFFF" stroke-width="14" stroke-linecap="round" stroke-miterlimit="10" d="M363.267,261
		c0,1.104-0.896,2-2,2h-322c-1.104,0-2-0.896-2-2V80c0-1.104,0.896-2,2-2h322c1.104,0,2,0.896,2,2V261z M216.267,277
		c0-1.1-0.9-2-2-2h-30.371c-1.1,0-2.272,0.858-2.604,1.906c0,0-8.872,27.974-46.725,43.623c-26.062,10.778-78.3,10.848-78.3,10.848
		c-1.1,0.002-2,0.903-2,2.003V358c0,1.1,0.9,2,2,2h158c1.1,0,2-0.9,2-2V277z M184.267,358c0,1.1,0.9,2,2,2h158c1.1,0,2-0.9,2-2
		v-24.62c0-1.1-0.9-2.001-2-2.003c0,0-52.337-0.07-78.401-10.848c-37.847-15.649-46.824-43.625-46.824-43.625
		c-0.337-1.047-1.512-1.904-2.611-1.904h-30.163c-1.1,0-2,0.9-2,2V358z M365.267,81c0-1.1-0.9-2-2-2h-326c-1.1,0-2,0.9-2,2v181
		c0,1.1,0.9,2,2,2h326c1.1,0,2-0.9,2-2V81z"/>
</g>
</svg>
