<?xml version="1.0" encoding="utf-8"?>
<!-- Generator: Adobe Illustrator 16.0.0, SVG Export Plug-In . SVG Version: 6.00 Build 0)  -->
<!DOCTYPE svg PUBLIC "-//W3C//DTD SVG 1.1//EN" "http://www.w3.org/Graphics/SVG/1.1/DTD/svg11.dtd">
<svg version="1.1" id="Layer_1" xmlns="http://www.w3.org/2000/svg" xmlns:xlink="http://www.w3.org/1999/xlink" x="0px" y="0px"
	 width="128px" height="128px" viewBox="0 0 128 128" enable-background="new 0 0 128 128" xml:space="preserve">
<g>
	<path fill="#A3AF26" d="M122,64c0,32.03-25.97,58-58,58S6,96.03,6,64S31.97,6,64,6S122,31.97,122,64z M74.03,36.666
		c-20.468,0-37.06,16.595-37.06,37.06c0,20.467,16.591,37.065,37.06,37.065c20.475,0,37.065-16.599,37.065-37.065
		C111.096,53.261,94.505,36.666,74.03,36.666z"/>
	<path fill="#006888" d="M84.249,85.309c0,11.672-9.452,21.124-21.127,21.124c-11.665,0-21.127-9.452-21.127-21.124
		s9.462-21.128,21.127-21.128C74.797,64.181,84.249,73.637,84.249,85.309z"/>
</g>
</svg>
