<?xml version="1.0" encoding="utf-8"?>
<!-- Generator: Adobe Illustrator 16.0.0, SVG Export Plug-In . SVG Version: 6.00 Build 0)  -->
<!DOCTYPE svg PUBLIC "-//W3C//DTD SVG 1.1//EN" "http://www.w3.org/Graphics/SVG/1.1/DTD/svg11.dtd">
<svg version="1.1" id="Layer_1" xmlns="http://www.w3.org/2000/svg" xmlns:xlink="http://www.w3.org/1999/xlink" x="0px" y="0px"
	 width="256px" height="256px" viewBox="0 0 256 256" enable-background="new 0 0 256 256" xml:space="preserve">
<path d="M185.982,44.562l-58.011,58.011L69.988,44.589c-7.029-7.029-18.426-7.029-25.455,0c-7.029,7.03-7.029,18.426,0,25.456
	l57.982,57.983l-57.955,57.954c-7.029,7.029-7.029,18.426,0.001,25.456s18.427,7.03,25.456,0.001l57.954-57.955l57.982,57.982
	c7.03,7.029,18.427,7.029,25.456,0s7.029-18.426,0-25.456l-57.982-57.982l58.011-58.011c7.03-7.03,7.03-18.426,0-25.456
	S193.012,37.532,185.982,44.562z"/>
</svg>
